# xmcd
#
# Track frame offsets:
#	150
#	16638
#	33617
#	49363
#	65149
#	79808
#	94874
#	112206
#	127113
#	141999
#	157502
#	171238
#	189821
#	205117
#	230370
#	246674
#	259723
#	275733
#	289835
#	304961
#	322515
#	339335
#
# Disc length: 4705 seconds
#
# Revision: 1
# Processed by: cddbd v1.5.2PL0 Copyright (c) Steve Scherf et al.
# Submitted via: audiograbber 1.83.01
#
DISCID=42125f16
DTITLE=Various Artist - Cream Of Country 2017
DYEAR=2017
DGENRE=Country
TTITLE0=Chris Young featuring Cassadee Pope - Think Of You
TTITLE1=Brad Paisley - Country Nation
TTITLE2=Carrie Underwood - Heartbeat
TTITLE3=Lee Brice - That Don't Sound Like You
TTITLE4=Jason Aldean - Lights Come On
TTITLE5=Kelsea Ballerini - Peter Pan
TTITLE6=Sam Hunt - Break Up In A Small Town
TTITLE7=Jake Owen - American Country Love Song
TTITLE8=Maren Morris - My Church
TTITLE9=Old Dominion - Snapback
TTITLE10=Kenny Chesney - Save It For A Rainy Day
TTITLE11=Miranda Lambert - Automatic
TTITLE12=Jon Pardi - Head Over Boots
TTITLE13=Brothers Osborne - Stay A Little Longer
TTITLE14=Cam - Mayday
TTITLE15=Brett Eldredge - Drunk On Your Love
TTITLE16=Kip Moore - Running For You
TTITLE17=Cole Swindell - Let Me See Ya Girl
TTITLE18=Jana Kramer - I Got The Boy
TTITLE19=Adam Wakefield - Lonesome Broken And Blue ('The Voice' Performance)
TTITLE20=LANco - Long Live Tonight
TTITLE21=Frankie Ballard - Sunshine and Whiskey
EXTD=
EXTT0=
EXTT1=
EXTT2=
EXTT3=
EXTT4=
EXTT5=
EXTT6=
EXTT7=
EXTT8=
EXTT9=
EXTT10=
EXTT11=
EXTT12=
EXTT13=
EXTT14=
EXTT15=
EXTT16=
EXTT17=
EXTT18=
EXTT19=
EXTT20=
EXTT21=
PLAYORDER=
